<?xml version="1.0" encoding="UTF-8" standalone="no"?>
<svg
   xmlns:dc="http://purl.org/dc/elements/1.1/"
   xmlns:cc="http://creativecommons.org/ns#"
   xmlns:rdf="http://www.w3.org/1999/02/22-rdf-syntax-ns#"
   xmlns:svg="http://www.w3.org/2000/svg"
   xmlns="http://www.w3.org/2000/svg"
   xmlns:sodipodi="http://sodipodi.sourceforge.net/DTD/sodipodi-0.dtd"
   xmlns:inkscape="http://www.inkscape.org/namespaces/inkscape"
   sodipodi:docname="css.svg"
   inkscape:version="1.0beta2 (2b71d25, 2019-12-03)"
   version="1.1"
   id="svg3476"
   viewBox="0 0 362.73398 411.38"
   height="116.10058mm"
   width="102.37159mm">
  <defs
     id="defs3478" />
  <sodipodi:namedview
     inkscape:document-rotation="0"
     inkscape:window-maximized="1"
     inkscape:window-y="23"
     inkscape:window-x="0"
     inkscape:window-height="1107"
     inkscape:window-width="1920"
     fit-margin-bottom="0"
     fit-margin-right="0"
     fit-margin-left="0"
     fit-margin-top="0"
     showgrid="false"
     inkscape:current-layer="layer1"
     inkscape:document-units="px"
     inkscape:cy="148.672"
     inkscape:cx="181.367"
     inkscape:zoom="0.35"
     inkscape:pageshadow="2"
     inkscape:pageopacity="0.0"
     borderopacity="1.0"
     bordercolor="#666666"
     pagecolor="#ffffff"
     id="base" />
  <metadata
     id="metadata3481">
    <rdf:RDF>
      <cc:Work
         rdf:about="">
        <dc:format>image/svg+xml</dc:format>
        <dc:type
           rdf:resource="http://purl.org/dc/dcmitype/StillImage" />
        <dc:title></dc:title>
      </cc:Work>
    </rdf:RDF>
  </metadata>
  <g
     transform="translate(-193.633,-376.9822)"
     id="layer1"
     inkscape:groupmode="layer"
     inkscape:label="Calque 1">
    <polygon
       transform="translate(119,276.3622)"
       id="polygon2989"
       points="404.321,470.819 255.778,512 107.644,470.877 74.633,100.62 437.367,100.62 "
       style="fill:#264de4" />
    <polygon
       transform="translate(119,276.3622)"
       id="polygon2991"
       points="256,130.894 256,480.523 376.03,447.246 404.27,130.894 "
       style="fill:#2965f1" />
    <polygon
       transform="translate(119,276.3622)"
       id="polygon2993"
       points="256,313.627 256,268.217 150.31,268.217 154.38,313.627 "
       style="fill:#ebebeb" />
    <polygon
       transform="translate(119,276.3622)"
       id="polygon2995"
       points="255.843,176.305 142.132,176.305 146.26,221.716 256,221.716 256,176.305 "
       style="fill:#ebebeb" />
    <polygon
       transform="translate(119,276.3622)"
       id="polygon2997"
       points="156.409,336.333 162.771,407.634 255.791,433.457 256,433.399 256,386.153 255.801,386.206 205.227,372.55 201.994,336.333 177.419,336.333 "
       style="fill:#ebebeb" />
    <polygon
       transform="translate(119,276.3622)"
       id="polygon3005"
       points="360.291,280.411 361.399,268.217 369.597,176.305 255.843,176.305 255.843,221.716 319.831,221.716 315.699,268.217 255.843,268.217 255.843,313.627 311.761,313.627 306.49,372.521 255.843,386.191 255.843,433.435 348.937,407.634 349.62,399.962 "
       style="fill:#ffffff" />
  </g>
</svg>
