<?xml version="1.0" encoding="UTF-8" standalone="no"?>
<svg
   xmlns:dc="http://purl.org/dc/elements/1.1/"
   xmlns:cc="http://creativecommons.org/ns#"
   xmlns:rdf="http://www.w3.org/1999/02/22-rdf-syntax-ns#"
   xmlns:svg="http://www.w3.org/2000/svg"
   xmlns="http://www.w3.org/2000/svg"
   xmlns:sodipodi="http://sodipodi.sourceforge.net/DTD/sodipodi-0.dtd"
   xmlns:inkscape="http://www.inkscape.org/namespaces/inkscape"
   inkscape:version="1.0beta2 (2b71d25, 2019-12-03)"
   height="512"
   width="451"
   sodipodi:docname="html5.svg"
   id="svg97"
   version="1.1"
   viewBox="0 0 451 512">
  <metadata
     id="metadata103">
    <rdf:RDF>
      <cc:Work
         rdf:about="">
        <dc:format>image/svg+xml</dc:format>
        <dc:type
           rdf:resource="http://purl.org/dc/dcmitype/StillImage" />
        <dc:title>HTML5 Logo Badge</dc:title>
      </cc:Work>
    </rdf:RDF>
  </metadata>
  <defs
     id="defs101" />
  <sodipodi:namedview
     inkscape:current-layer="svg97"
     inkscape:window-maximized="0"
     inkscape:window-y="23"
     inkscape:window-x="0"
     inkscape:cy="256"
     inkscape:cx="226"
     inkscape:zoom="0.53125"
     fit-margin-bottom="0"
     fit-margin-right="0"
     fit-margin-left="0"
     fit-margin-top="0"
     showgrid="false"
     id="namedview99"
     inkscape:window-height="690"
     inkscape:window-width="1036"
     inkscape:pageshadow="2"
     inkscape:pageopacity="0"
     guidetolerance="10"
     gridtolerance="10"
     objecttolerance="10"
     borderopacity="1"
     inkscape:document-rotation="0"
     bordercolor="#666666"
     pagecolor="#ffffff" />
  <title
     id="title87">HTML5 Logo Badge</title>
  <path
     inkscape:connector-curvature="0"
     id="path89"
     d="M 41,460 0,0 h 451 l -41,460 -185,52"
     fill="#E34F26" />
  <path
     inkscape:connector-curvature="0"
     id="path91"
     d="M 226,472 375,431 410,37 H 226"
     fill="#EF652A" />
  <path
     inkscape:connector-curvature="0"
     id="path93"
     d="m 226,208 h -75 l -5,-58 h 80 V 94 H 225 84 l 1,15 14,156 h 127 z m 0,147 h -1 l -63,-17 -4,-45 h -30 -26 l 7,89 116,32 h 1 z"
     fill="#EBEBEB" />
  <path
     inkscape:connector-curvature="0"
     id="path95"
     d="m 225,208 v 57 h 70 l -7,73 -63,17 v 59 l 116,-32 1,-10 13,-149 2,-15 h -16 z m 0,-114 v 35 21 0 h 137 v 0 0 l 1,-12 3,-29 1,-15 z"
     fill="#FFF" />
</svg>
