<?xml version="1.0" encoding="UTF-8" standalone="no"?>
<svg
   xmlns:dc="http://purl.org/dc/elements/1.1/"
   xmlns:cc="http://creativecommons.org/ns#"
   xmlns:rdf="http://www.w3.org/1999/02/22-rdf-syntax-ns#"
   xmlns:svg="http://www.w3.org/2000/svg"
   xmlns="http://www.w3.org/2000/svg"
   xmlns:sodipodi="http://sodipodi.sourceforge.net/DTD/sodipodi-0.dtd"
   xmlns:inkscape="http://www.inkscape.org/namespaces/inkscape"
   inkscape:version="1.0beta2 (2b71d25, 2019-12-03)"
   sodipodi:docname="wordpress.svg"
   viewBox="0 0 1333.3333 1333.3333"
   height="1333.3333"
   width="1333.3333"
   xml:space="preserve"
   id="svg56"
   version="1.1"><metadata
     id="metadata62"><rdf:RDF><cc:Work
         rdf:about=""><dc:format>image/svg+xml</dc:format><dc:type
           rdf:resource="http://purl.org/dc/dcmitype/StillImage" /><dc:title></dc:title></cc:Work></rdf:RDF></metadata><defs
     id="defs60"><clipPath
       id="clipPath72"
       clipPathUnits="userSpaceOnUse"><path
         inkscape:connector-curvature="0"
         id="path70"
         d="M 0,1000 H 1000 V 0 H 0 Z" /></clipPath><clipPath
       id="clipPath80"
       clipPathUnits="userSpaceOnUse"><path
         inkscape:connector-curvature="0"
         id="path78"
         d="M 0,1000 H 1000 V 0 H 0 Z" /></clipPath></defs><sodipodi:namedview
     inkscape:current-layer="g64"
     inkscape:window-maximized="0"
     inkscape:window-y="23"
     inkscape:window-x="0"
     inkscape:cy="666.66663"
     inkscape:cx="666.66663"
     inkscape:zoom="0.25722563"
     fit-margin-bottom="0"
     fit-margin-right="0"
     fit-margin-left="0"
     fit-margin-top="0"
     showgrid="false"
     id="namedview58"
     inkscape:window-height="625"
     inkscape:window-width="862"
     inkscape:pageshadow="2"
     inkscape:pageopacity="0"
     guidetolerance="10"
     gridtolerance="10"
     objecttolerance="10"
     borderopacity="1"
     inkscape:document-rotation="0"
     bordercolor="#666666"
     pagecolor="#ffffff" /><g
     transform="matrix(1.3333333,0,0,-1.3333333,0,1333.3333)"
     inkscape:label="WordPress-logotype-wmark"
     inkscape:groupmode="layer"
     id="g64"><g
       transform="matrix(1.4759043,0,0,1.4759043,-237.95217,-237.95217)"
       id="g66"><g
         clip-path="url(#clipPath72)"
         id="g68"><g
           id="g74"><g
             id="g76" /><g
             id="g86"><g
               id="g84"
               opacity="0"
               clip-path="url(#clipPath80)"><path
                 inkscape:connector-curvature="0"
                 id="path82"
                 style="fill:#ffffff;fill-opacity:1;fill-rule:nonzero;stroke:none"
                 d="M 1000,0 H 0 v 1000 h 1000 z" /></g></g></g><g
           transform="translate(499.9999,833.3333)"
           id="g88"><path
             inkscape:connector-curvature="0"
             id="path90"
             style="fill:#32373c;fill-opacity:1;fill-rule:nonzero;stroke:none"
             d="m 0,0 c -184.095,0 -333.333,-149.238 -333.333,-333.333 0,-184.095 149.238,-333.334 333.333,-333.334 184.095,0 333.333,149.239 333.333,333.334 C 333.333,-149.238 184.095,0 0,0 m 0,-20 c 42.309,0 83.341,-8.282 121.957,-24.615 18.562,-7.851 36.467,-17.57 53.217,-28.885 16.596,-11.212 32.202,-24.089 46.386,-38.273 14.184,-14.184 27.061,-29.791 38.273,-46.386 11.316,-16.75 21.034,-34.655 28.885,-53.217 16.334,-38.616 24.615,-79.649 24.615,-121.957 0,-42.309 -8.281,-83.341 -24.615,-121.957 -7.851,-18.562 -17.569,-36.467 -28.885,-53.217 -11.212,-16.596 -24.089,-32.202 -38.273,-46.386 -14.184,-14.184 -29.79,-27.061 -46.386,-38.273 -16.75,-11.316 -34.655,-21.034 -53.217,-28.885 C 83.341,-638.385 42.309,-646.667 0,-646.667 c -42.308,0 -83.341,8.282 -121.957,24.616 -18.562,7.851 -36.467,17.569 -53.217,28.885 -16.595,11.212 -32.202,24.089 -46.386,38.273 -14.184,14.184 -27.061,29.79 -38.273,46.386 -11.315,16.75 -21.034,34.655 -28.885,53.217 -16.333,38.616 -24.615,79.648 -24.615,121.957 0,42.308 8.282,83.341 24.615,121.957 7.851,18.562 17.57,36.467 28.885,53.217 11.212,16.595 24.089,32.202 38.273,46.386 14.184,14.184 29.791,27.061 46.386,38.273 16.75,11.315 34.655,21.034 53.217,28.885 C -83.341,-28.282 -42.308,-20 0,-20" /></g><g
           transform="translate(743.7592,633.2676)"
           id="g92"><path
             inkscape:connector-curvature="0"
             id="path94"
             style="fill:#32373c;fill-opacity:1;fill-rule:nonzero;stroke:none"
             d="m 0,0 c 1.193,-8.846 1.867,-18.337 1.867,-28.561 0,-28.177 -5.279,-59.864 -21.129,-99.49 l -84.839,-245.297 c 82.583,48.146 138.12,137.615 138.12,240.091 C 34.019,-84.963 21.677,-39.561 0,0 m -238.879,-157.554 -83.356,-242.173 c 24.894,-7.324 51.212,-11.318 78.476,-11.318 32.347,0 63.379,5.583 92.249,15.749 -0.743,1.188 -1.428,2.45 -1.993,3.828 z m 182.643,38.306 c 0,34.34 -12.335,58.108 -22.899,76.605 -14.082,22.892 -27.287,42.259 -27.287,65.15 0,25.53 19.361,49.298 46.647,49.298 1.233,0 2.4,-0.148 3.597,-0.224 -49.421,45.282 -115.265,72.929 -187.581,72.929 -97.049,0 -182.421,-49.795 -232.091,-125.197 6.522,-0.207 12.667,-0.337 17.877,-0.337 29.048,0 74.035,3.531 74.035,3.531 14.966,0.877 16.735,-21.122 1.776,-22.891 0,0 -15.053,-1.763 -31.789,-2.639 l 101.15,-300.884 60.797,182.31 -43.275,118.574 c -14.966,0.876 -29.134,2.639 -29.134,2.639 -14.974,0.884 -13.22,23.768 1.762,22.891 0,0 45.863,-3.531 73.156,-3.531 29.048,0 74.042,3.531 74.042,3.531 14.974,0.877 16.736,-21.122 1.77,-22.891 0,0 -15.068,-1.763 -31.79,-2.639 l 100.386,-298.592 28.656,90.801 c 12.731,39.683 20.195,67.798 20.195,91.566 m -465.301,-14.009 c 0,-109.945 63.89,-204.968 156.56,-249.989 l -132.507,363.034 c -15.413,-34.543 -24.053,-72.773 -24.053,-113.045" /></g></g></g></g></svg>
