<?xml version="1.0" encoding="UTF-8" standalone="no"?>
<!DOCTYPE svg PUBLIC "-//W3C//DTD SVG 1.1//EN" "http://www.w3.org/Graphics/SVG/1.1/DTD/svg11.dtd">
<svg width="100%" height="100%" viewBox="0 0 606 330" version="1.1" xmlns="http://www.w3.org/2000/svg" xmlns:xlink="http://www.w3.org/1999/xlink" xml:space="preserve" xmlns:serif="http://www.serif.com/" style="fill-rule:evenodd;clip-rule:evenodd;stroke-linejoin:round;stroke-miterlimit:2;">
    <g id="Layer_2" transform="matrix(1,0,0,1,-18.87,-16.73)">
        <g transform="matrix(1.08068,0,0,1,-26.13,-11.2222)">
            <g transform="matrix(314.617,0,0,340,38.3788,311.222)">
                <path d="M0.265,0.01C0.217,0.01 0.176,0.002 0.14,-0.015C0.104,-0.031 0.075,-0.056 0.054,-0.09C0.033,-0.124 0.021,-0.167 0.02,-0.219L0.021,-0.222L0.146,-0.222C0.148,-0.175 0.158,-0.142 0.177,-0.123C0.196,-0.103 0.221,-0.094 0.253,-0.094C0.274,-0.094 0.292,-0.098 0.308,-0.107C0.323,-0.117 0.335,-0.13 0.344,-0.147C0.353,-0.165 0.357,-0.186 0.357,-0.211L0.357,-0.616L0.261,-0.63L0.261,-0.711L0.566,-0.711L0.566,-0.63L0.489,-0.616L0.489,-0.211C0.489,-0.166 0.481,-0.127 0.463,-0.094C0.446,-0.061 0.42,-0.035 0.387,-0.017C0.354,0.001 0.313,0.01 0.265,0.01Z" style="fill-rule:nonzero;"/>
            </g>
            <g transform="matrix(314.617,0,0,340,204.967,311.222)">
                <path d="M0.03,-0L0.03,-0.08L0.106,-0.095L0.106,-0.616L0.03,-0.63L0.03,-0.711L0.344,-0.711C0.425,-0.711 0.489,-0.695 0.535,-0.662C0.581,-0.63 0.604,-0.581 0.604,-0.517C0.604,-0.484 0.595,-0.455 0.577,-0.429C0.559,-0.403 0.533,-0.384 0.5,-0.372C0.529,-0.365 0.553,-0.354 0.572,-0.338C0.591,-0.322 0.606,-0.303 0.615,-0.28C0.625,-0.257 0.63,-0.233 0.63,-0.206C0.63,-0.138 0.608,-0.087 0.564,-0.052C0.519,-0.017 0.457,-0 0.377,-0L0.03,-0ZM0.239,-0.102L0.377,-0.102C0.416,-0.102 0.446,-0.111 0.467,-0.128C0.487,-0.146 0.498,-0.172 0.498,-0.206C0.498,-0.23 0.494,-0.25 0.486,-0.267C0.478,-0.284 0.467,-0.296 0.45,-0.305C0.434,-0.314 0.414,-0.318 0.389,-0.318L0.239,-0.318L0.239,-0.102ZM0.239,-0.412L0.353,-0.412C0.39,-0.412 0.42,-0.42 0.44,-0.437C0.461,-0.454 0.471,-0.477 0.471,-0.508C0.471,-0.542 0.46,-0.568 0.439,-0.584C0.417,-0.6 0.386,-0.608 0.344,-0.608L0.239,-0.608L0.239,-0.412Z" style="fill-rule:nonzero;"/>
            </g>
            <g transform="matrix(314.617,0,0,340,393.83,311.222)">
                <path d="M0.03,-0L0.03,-0.08L0.106,-0.095L0.106,-0.616L0.03,-0.63L0.03,-0.711L0.363,-0.711C0.417,-0.711 0.463,-0.703 0.501,-0.686C0.54,-0.669 0.569,-0.646 0.59,-0.614C0.61,-0.583 0.62,-0.546 0.62,-0.502C0.62,-0.46 0.61,-0.424 0.59,-0.392C0.57,-0.36 0.541,-0.335 0.505,-0.317C0.469,-0.299 0.427,-0.289 0.379,-0.289L0.239,-0.289L0.239,-0.095L0.316,-0.08L0.316,-0L0.03,-0ZM0.49,-0L0.362,-0.317L0.484,-0.342L0.593,-0.094L0.651,-0.081L0.651,-0L0.49,-0ZM0.239,-0.391L0.358,-0.391C0.402,-0.391 0.435,-0.4 0.456,-0.418C0.477,-0.436 0.488,-0.463 0.488,-0.497C0.488,-0.531 0.477,-0.558 0.457,-0.578C0.436,-0.598 0.404,-0.608 0.363,-0.608L0.239,-0.608L0.239,-0.391Z" style="fill-rule:nonzero;"/>
            </g>
        </g>
        <g transform="matrix(1.07724,0,0,1.39418,-61.3598,-100)">
            <path d="M56.96,0L236.25,363.46L644.72,363.46L459.33,0L56.96,0Z" style="fill:rgb(0,122,153);fill-rule:nonzero;"/>
            <clipPath id="_clip1">
                <path d="M56.96,0L236.25,363.46L644.72,363.46L459.33,0L56.96,0Z" clip-rule="nonzero"/>
            </clipPath>
            <g clip-path="url(#_clip1)">
                <g transform="matrix(1.00319,0,0,0.717266,31.3506,63.9991)">
                    <g transform="matrix(314.617,0,0,340,38.3788,311.222)">
                        <path d="M0.265,0.01C0.217,0.01 0.176,0.002 0.14,-0.015C0.104,-0.031 0.075,-0.056 0.054,-0.09C0.033,-0.124 0.021,-0.167 0.02,-0.219L0.021,-0.222L0.146,-0.222C0.148,-0.175 0.158,-0.142 0.177,-0.123C0.196,-0.103 0.221,-0.094 0.253,-0.094C0.274,-0.094 0.292,-0.098 0.308,-0.107C0.323,-0.117 0.335,-0.13 0.344,-0.147C0.353,-0.165 0.357,-0.186 0.357,-0.211L0.357,-0.616L0.261,-0.63L0.261,-0.711L0.566,-0.711L0.566,-0.63L0.489,-0.616L0.489,-0.211C0.489,-0.166 0.481,-0.127 0.463,-0.094C0.446,-0.061 0.42,-0.035 0.387,-0.017C0.354,0.001 0.313,0.01 0.265,0.01Z" style="fill:white;fill-rule:nonzero;"/>
                    </g>
                    <g transform="matrix(314.617,0,0,340,204.967,311.222)">
                        <path d="M0.03,-0L0.03,-0.08L0.106,-0.095L0.106,-0.616L0.03,-0.63L0.03,-0.711L0.344,-0.711C0.425,-0.711 0.489,-0.695 0.535,-0.662C0.581,-0.63 0.604,-0.581 0.604,-0.517C0.604,-0.484 0.595,-0.455 0.577,-0.429C0.559,-0.403 0.533,-0.384 0.5,-0.372C0.529,-0.365 0.553,-0.354 0.572,-0.338C0.591,-0.322 0.606,-0.303 0.615,-0.28C0.625,-0.257 0.63,-0.233 0.63,-0.206C0.63,-0.138 0.608,-0.087 0.564,-0.052C0.519,-0.017 0.457,-0 0.377,-0L0.03,-0ZM0.239,-0.102L0.377,-0.102C0.416,-0.102 0.446,-0.111 0.467,-0.128C0.487,-0.146 0.498,-0.172 0.498,-0.206C0.498,-0.23 0.494,-0.25 0.486,-0.267C0.478,-0.284 0.467,-0.296 0.45,-0.305C0.434,-0.314 0.414,-0.318 0.389,-0.318L0.239,-0.318L0.239,-0.102ZM0.239,-0.412L0.353,-0.412C0.39,-0.412 0.42,-0.42 0.44,-0.437C0.461,-0.454 0.471,-0.477 0.471,-0.508C0.471,-0.542 0.46,-0.568 0.439,-0.584C0.417,-0.6 0.386,-0.608 0.344,-0.608L0.239,-0.608L0.239,-0.412Z" style="fill:white;fill-rule:nonzero;"/>
                    </g>
                    <g transform="matrix(314.617,0,0,340,393.83,311.222)">
                        <path d="M0.03,-0L0.03,-0.08L0.106,-0.095L0.106,-0.616L0.03,-0.63L0.03,-0.711L0.363,-0.711C0.417,-0.711 0.463,-0.703 0.501,-0.686C0.54,-0.669 0.569,-0.646 0.59,-0.614C0.61,-0.583 0.62,-0.546 0.62,-0.502C0.62,-0.46 0.61,-0.424 0.59,-0.392C0.57,-0.36 0.541,-0.335 0.505,-0.317C0.469,-0.299 0.427,-0.289 0.379,-0.289L0.239,-0.289L0.239,-0.095L0.316,-0.08L0.316,-0L0.03,-0ZM0.49,-0L0.362,-0.317L0.484,-0.342L0.593,-0.094L0.651,-0.081L0.651,-0L0.49,-0ZM0.239,-0.391L0.358,-0.391C0.402,-0.391 0.435,-0.4 0.456,-0.418C0.477,-0.436 0.488,-0.463 0.488,-0.497C0.488,-0.531 0.477,-0.558 0.457,-0.578C0.436,-0.598 0.404,-0.608 0.363,-0.608L0.239,-0.608L0.239,-0.391Z" style="fill:white;fill-rule:nonzero;"/>
                    </g>
                </g>
            </g>
        </g>
    </g>
</svg>
