<svg xmlns="http://www.w3.org/2000/svg" viewBox="0 0 647.74 363.46">
  <defs>
    <style>
      .cls-1 {
        fill: #1c8fdb;
      }

      .cls-2 {
        fill: #fff;
      }
    </style>
  </defs>
  <title>JB-Logo</title>
  <g id="Layer_2" data-name="Layer 2">
    <g>
      <path d="M129.11,45.34h51.32l.18,184.26a85.52,85.52,0,0,1-7.21,34.61,82.56,82.56,0,0,1-19.27,26.93,86.84,86.84,0,0,1-28.76,17.53,100.18,100.18,0,0,1-35.52,6.21,122.9,122.9,0,0,1-36.53-5.11,78.31,78.31,0,0,1-28.21-15.25A68.74,68.74,0,0,1,6.76,269Q.18,253.71,0,233.07H51.5Q51.68,254.43,61,264t28.86,9.59a37.71,37.71,0,0,0,16.07-3.38A36.74,36.74,0,0,0,118.34,261a42.06,42.06,0,0,0,7.94-14,52.58,52.58,0,0,0,2.83-17.44Z"/>
      <path d="M227.72,311.23V45.34H317a165.63,165.63,0,0,1,39.54,4.38Q374.37,54.1,387,63.05A60.66,60.66,0,0,1,406.41,85.7q6.85,13.69,6.85,32.32a60.4,60.4,0,0,1-9.95,33.42q-9.76,14.79-28.76,22.46a60.59,60.59,0,0,1,19.9,8.77,55.65,55.65,0,0,1,14,13.78,56.6,56.6,0,0,1,8.22,17.35,71.67,71.67,0,0,1,2.65,19.45q0,19.17-6.58,33.79a65.5,65.5,0,0,1-18.8,24.47q-12.24,9.86-29.77,14.79t-39.45,4.93Zm51.5-154.31h38.17q21.36-.18,32.87-8.95T362,122.22q0-18.63-11.51-26.75t-33.23-8.31h-38Zm0,37.07v75.78h45.66q21-.18,32.05-10.31t11-26.57q.18-18.27-9.86-28.49t-31-10.41Z"/>
      <path d="M542.74,211.88h-38.9v99.35H452.53V45.34h89.11a143.15,143.15,0,0,1,40,5.2,88.58,88.58,0,0,1,30.58,15.25,66.92,66.92,0,0,1,19.54,25q6.86,15,6.85,34.7a90,90,0,0,1-3.38,25.65,69.1,69.1,0,0,1-24.83,36.25,100.46,100.46,0,0,1-19.82,11.69l57.16,109.75v2.38h-55Zm-38.9-41.63h38q21.72,0,33.5-11.05T587.11,129q0-19.9-11.5-31t-34-11h-37.8Z"/>
    </g>
    <polygon class="cls-1" points="56.96 0 236.25 363.46 644.72 363.46 459.33 0 56.96 0"/>
  </g>
  <g id="Layer_3" data-name="Layer 3">
    <g>
      <path class="cls-2" d="M180.43,45.34H129.11V146.26l49.73,100.8a93.75,93.75,0,0,0,1.77-17.46Z"/>
      <path class="cls-2" d="M452.53,311.23h51.31V211.88h38.9l50,99.35h25.3l-72-141.11c-1.4.08-2.82.13-4.28.13h-38v-83L482.46,45.34H452.53Z"/>
      <path class="cls-2" d="M408.42,196.45a55.65,55.65,0,0,0-14-13.78,60.59,60.59,0,0,0-19.9-8.77q19-7.67,28.76-22.46A60.4,60.4,0,0,0,413.26,118q0-18.63-6.85-32.32A60.66,60.66,0,0,0,387,63.05q-12.6-8.94-30.41-13.33A165.63,165.63,0,0,0,317,45.34h-89.3V311.23h97q21.92,0,39.45-4.93t29.77-14.79A65.5,65.5,0,0,0,412.71,267q6.59-14.61,6.58-33.79a71.67,71.67,0,0,0-2.65-19.45A56.6,56.6,0,0,0,408.42,196.45ZM279.22,87.16h38q21.72.18,33.23,8.31T362,122.22q-.19,17-11.69,25.75t-32.87,8.95H279.22Zm77.71,172.3q-11.06,10.13-32.05,10.31H279.22V194h47.85q21,.18,31,10.41T368,232.89Q368,249.32,356.93,259.46Z"/>
    </g>
  </g>
</svg>
